<?xml version="1.0" encoding="UTF-8"?>
<svg id="Layer_1" data-name="Layer 1" xmlns="http://www.w3.org/2000/svg" viewBox="0 0 1149.36 295.01">
  <defs>
    <style>
      .cls-1 {
        font-family: CascadiaCodeRoman-Light, 'Cascadia Code';
        font-size: 60px;
        font-variation-settings: 'wght' 300;
        font-weight: 300;
      }

      .cls-1, .cls-2, .cls-3 {
        fill: #fff;
      }

      .cls-2 {
        font-family: CascadiaCode-BoldItalic, 'Cascadia Code';
        font-size: 160px;
        font-style: italic;
        font-variation-settings: 'wght' 700;
        font-weight: 700;
      }

      .cls-3 {
        stroke-width: 0px;
      }
    </style>
  </defs>
  <g>
    <path class="cls-3" d="M204.71,33.24c-32.1,15.29-55.61,34.49-72.73,53.47-4.4,4.87-8.38,9.73-11.97,14.5-10.57,14.05-17.8,27.39-22.67,38.21-1.42-3.58-2.72-7.25-3.92-10.95-.02-.06-.04-.13-.06-.19-3.93-12.14-4.81-25.08-2.94-37.7,4.49-30.21,12.4-52.45,17.57-64.63,12.43-4.03,25.72-6.23,39.49-6.23,20.57,0,40.02,4.87,57.22,13.52Z"/>
    <path class="cls-3" d="M115.45,186.91c-3.8-.57-7.63-1.28-11.42-2.1l-.7-.15c-.06-.01-.12-.03-.19-.04-12.1-2.64-23.39-8.2-33.11-15.88-24.12-19.09-39.53-37.19-47.53-47.8,7.03-33.35,27.12-61.92,54.64-80.11-2.8,35.44,2.07,65.38,9.95,89.7,2.02,6.25,4.23,12.12,6.58,17.62,6.88,16.19,14.8,29.14,21.77,38.77Z"/>
    <path class="cls-3" d="M165.59,194.96c-1.78,2.22-3.63,4.43-5.57,6.63l-3.67,4.1s-.08.08-.12.13c-7.49,8.08-16.72,14.37-26.93,18.52-29.54,11.98-53.75,16.45-67.28,18.13-24.22-21.79-40.06-52.74-42.07-87.38,29.29,20.15,57.67,30.9,82.66,36.24h.02c6.42,1.38,12.6,2.4,18.54,3.12,17.45,2.12,32.6,1.72,44.42.52Z"/>
    <path class="cls-3" d="M202.86,214.6c-4.6,25.05-11.32,43.69-15.89,54.44-12.42,4.05-25.7,6.23-39.49,6.23-20.57,0-40.01-4.85-57.22-13.5,32.1-15.3,55.62-34.5,72.76-53.49,0-.02.02-.02.02-.02,4.37-4.87,8.35-9.72,11.93-14.49,13.6-18.1,20.97-31.46,25.57-43.38l-8.39,39.61c.22-.07.38-.12.47-.13-.17.13-.35.25-.52.37l-5.15,24.35h15.9Z"/>
    <path class="cls-3" d="M208.11,114.63l-6.82,32.22c-6.87-16.17-14.77-29.1-21.74-38.74,3.78.57,7.6,1.27,11.4,2.07,5.62,1.22,11.22,2.65,16.62,4.28l.53.17Z"/>
    <path class="cls-3" d="M217.83,254.18c1.12-14.07,1.03-27.25.02-39.59h38.09s-20.52,27.99-38.1,39.59Z"/>
    <path class="cls-3" d="M220.81,54.39l-11.32,53.69c-5.87-1.77-11.58-3.22-17.14-4.42-6.42-1.37-12.62-2.38-18.55-3.1-17.44-2.12-32.59-1.73-44.41-.55,2.42-3.02,4.95-5.97,7.53-8.83.04-.05.09-.1.13-.15,8.65-9.58,19.57-16.83,31.58-21.56,20.86-8.21,38.9-12.67,52.17-15.09Z"/>
    <path class="cls-3" d="M266.6,214.6c-10.62,18.79-25.64,35.09-43.84,47.11-10.22,6.77-21.34,12.1-33,15.89-13.6,4.43-27.82,6.68-42.27,6.68-21.55,0-42.16-4.87-61.24-14.47-10.95-5.48-21.12-12.43-30.24-20.67-26.94-24.24-42.92-57.46-45.02-93.56-.17-2.53-.25-5.17-.25-8.07,0-9.63,1-19.19,2.98-28.44,7.33-34.77,28.65-66.03,58.49-85.74,10.27-6.78,21.37-12.13,33.02-15.9,13.59-4.43,27.8-6.68,42.26-6.68,21.55,0,42.16,4.87,61.24,14.45,10.97,5.5,21.14,12.45,30.25,20.69,6.08,5.47,11.6,11.38,16.52,17.7h13.35c-6.47-9.3-14.05-17.92-22.69-25.69-9.82-8.87-20.8-16.37-32.62-22.29C192.96,5.25,170.74,0,147.49,0c-15.57,0-30.92,2.43-45.57,7.2-12.57,4.07-24.55,9.83-35.62,17.17C34.1,45.62,11.12,79.33,3.22,116.83c-2.13,9.97-3.22,20.29-3.22,30.67,0,3.13.08,6.02.27,8.73,2.25,38.91,19.5,74.73,48.56,100.88,9.83,8.87,20.8,16.37,32.6,22.27,20.59,10.37,42.81,15.62,66.06,15.62,15.59,0,30.92-2.43,45.59-7.2,12.59-4.08,24.57-9.85,35.62-17.15,21.29-14.07,38.57-33.59,50.11-56.06h-12.2Z"/>
    <path class="cls-3" d="M192.11,190.24c.17-.12.35-.23.52-.37-.08.02-.25.07-.47.13l-.05.23Z"/>
  </g>
  <text class="cls-2" transform="translate(208.11 196.9)"><tspan x="0" y="0">TAKAYUKI0X</tspan></text>
  <text class="cls-1" transform="translate(446.24 254.18)"><tspan x="0" y="0">Developer - Marketer</tspan></text>
</svg>